<?xml version="1.0" encoding="UTF-8"?>
<!DOCTYPE svg PUBLIC "-//W3C//DTD SVG 1.1//EN" "http://www.w3.org/Graphics/SVG/1.1/DTD/svg11.dtd">
<svg xmlns="http://www.w3.org/2000/svg" version="1.1" width="48px" height="48px" style="shape-rendering:geometricPrecision; text-rendering:geometricPrecision; image-rendering:optimizeQuality; fill-rule:evenodd; clip-rule:evenodd" xmlns:xlink="http://www.w3.org/1999/xlink">
<g><path style="opacity:1" fill="#2490ff" d="M -0.5,-0.5 C 15.5,-0.5 31.5,-0.5 47.5,-0.5C 47.5,15.5 47.5,31.5 47.5,47.5C 31.5,47.5 15.5,47.5 -0.5,47.5C -0.5,31.5 -0.5,15.5 -0.5,-0.5 Z"/></g>
<g><path style="opacity:1" fill="#f5f9ff" d="M 27.5,18.5 C 29.8568,18.3367 32.1902,18.5034 34.5,19C 32.5273,19.4955 30.5273,19.6621 28.5,19.5C 28.5,20.5 28.5,21.5 28.5,22.5C 36.5,22.8333 36.5,23.1667 28.5,23.5C 28.5,24.8333 28.5,26.1667 28.5,27.5C 30.5273,27.3379 32.5273,27.5045 34.5,28C 32.1902,28.4966 29.8568,28.6633 27.5,28.5C 27.5,25.1667 27.5,21.8333 27.5,18.5 Z"/></g>
<g><path style="opacity:1" fill="#e8f1ff" d="M 23.5,18.5 C 24.3909,19.2613 25.0576,20.2613 25.5,21.5C 24.6285,24.0317 24.2952,26.3651 24.5,28.5C 23.0468,25.1605 22.7135,21.8272 23.5,18.5 Z"/></g>
<g><path style="opacity:1" fill="#cfe0ff" d="M 35.5,20.5 C 37.4109,20.5743 38.5776,21.5743 39,23.5C 39.5354,21.7295 40.3687,21.3961 41.5,22.5C 40.3904,24.4959 40.7237,26.3292 42.5,28C 41.0039,28.5074 39.8373,28.0074 39,26.5C 35.2256,29.197 34.7256,28.697 37.5,25C 36.5862,23.5936 35.9195,22.0936 35.5,20.5 Z"/></g>
<g><path style="opacity:1" fill="#e1ecff" d="M 5.5,18.5 C 7.98773,19.7399 9.82106,21.7399 11,24.5C 11.1922,22.4233 11.6922,20.4233 12.5,18.5C 14.5687,30.0885 12.7354,31.0885 7,21.5C 6.66667,23.8333 6.33333,26.1667 6,28.5C 5.50166,25.1832 5.33499,21.8499 5.5,18.5 Z"/></g>
<g><path style="opacity:1" fill="#ccdcff" d="M 16.5,20.5 C 21.2624,21.0925 22.5957,23.5925 20.5,28C 14.4034,28.1475 13.0701,25.6475 16.5,20.5 Z"/></g>
<g><path style="opacity:1" fill="#2b87ff" d="M 16.5,26.5 C 17.6009,25.4017 18.9343,25.235 20.5,26C 19.3181,27.7683 17.9848,27.9349 16.5,26.5 Z"/></g>
</svg>
